HIERARCHY
ROOT Hips
{
	OFFSET 51.266701 -9.604353 84.410400
	CHANNELS 6 Xposition Yposition Zposition Xrotation Yrotation Zrotation
	JOINT spine
	{
		OFFSET 0.000000 -0.342408 5.954376
		CHANNELS 3 Xrotation Yrotation Zrotation
		JOINT spine1
		{
			OFFSET 0.000000 -0.000002 8.856018
			CHANNELS 3 Xrotation Yrotation Zrotation
			JOINT spine2
			{
				OFFSET 0.000000 -0.000001 8.485672
				CHANNELS 3 Xrotation Yrotation Zrotation
				JOINT Neck
				{
					OFFSET 0.000000 -1.038704 21.786301
					CHANNELS 3 Xrotation Yrotation Zrotation
					JOINT Head
					{
						OFFSET 0.000000 -0.000001 6.582199
						CHANNELS 3 Xrotation Yrotation Zrotation
						End Site
						{
							OFFSET 0.000000 5.254357 15.932602
						}
					}
				}
				JOINT RightShoulder
				{
					OFFSET -3.573071 0.497523 9.163864
					CHANNELS 3 Xrotation Yrotation Zrotation
					JOINT RightArm
					{
						OFFSET 0.000000 -0.000002 12.019196
						CHANNELS 3 Xrotation Yrotation Zrotation
						JOINT RightArmRoll
						{
							OFFSET 0.000000 -0.000001 6.067551
							CHANNELS 3 Xrotation Yrotation Zrotation
							JOINT RightForeArm
							{
								OFFSET 0.000000 -0.000003 17.672592
								CHANNELS 3 Xrotation Yrotation Zrotation
								JOINT RightForeArmRoll
								{
									OFFSET 0.000000 -0.000001 6.808716
									CHANNELS 3 Xrotation Yrotation Zrotation
									JOINT RightHand
									{
										OFFSET 0.000000 -0.000003 13.663605
										CHANNELS 3 Xrotation Yrotation Zrotation
										End Site
										{
											OFFSET 0.000000 0.000000 0.100006
										}
									}
								}
							}
						}
					}
				}
				JOINT LeftShoulder
				{
					OFFSET 3.573071 0.497523 9.163864
					CHANNELS 3 Xrotation Yrotation Zrotation
					JOINT LeftArm
					{
						OFFSET 0.000000 -0.000002 12.019196
						CHANNELS 3 Xrotation Yrotation Zrotation
						JOINT LeftArmRoll
						{
							OFFSET 0.000000 -0.000001 6.067551
							CHANNELS 3 Xrotation Yrotation Zrotation
							JOINT LeftForeArm
							{
								OFFSET 0.000000 -0.000003 17.672592
								CHANNELS 3 Xrotation Yrotation Zrotation
								JOINT LeftForeArmRoll
								{
									OFFSET 0.000000 -0.000001 6.808716
									CHANNELS 3 Xrotation Yrotation Zrotation
									JOINT LeftHand
									{
										OFFSET 0.000000 -0.000003 13.663605
										CHANNELS 3 Xrotation Yrotation Zrotation
										End Site
										{
											OFFSET 0.000000 0.000000 0.100006
										}
									}
								}
							}
						}
					}
				}
			}
		}
	}
	JOINT RightUpLeg
	{
		OFFSET -5.277740 0.811858 -0.967796
		CHANNELS 3 Xrotation Yrotation Zrotation
		JOINT RightUpLegRoll
		{
			OFFSET 0.000000 -0.000003 16.021400
			CHANNELS 3 Xrotation Yrotation Zrotation
			JOINT RightLeg
			{
				OFFSET 0.000000 0.000003 -19.840103
				CHANNELS 3 Xrotation Yrotation Zrotation
				JOINT RightLegRoll
				{
					OFFSET 0.000000 -0.000003 19.904999
					CHANNELS 3 Xrotation Yrotation Zrotation
					JOINT RightFoot
					{
						OFFSET 0.000000 -0.000003 16.567497
						CHANNELS 3 Xrotation Yrotation Zrotation
						JOINT RightToeBase
						{
							OFFSET 0.000000 -0.000002 13.849602
							CHANNELS 3 Xrotation Yrotation Zrotation
							End Site
							{
								OFFSET 0.005871 0.773116 6.707275
							}
						}
					}
				}
			}
		}
	}
	JOINT LeftUpLeg
	{
		OFFSET 5.277740 0.811858 -0.967796
		CHANNELS 3 Xrotation Yrotation Zrotation
		JOINT LeftUpLegRoll
		{
			OFFSET 0.000000 -0.000003 16.021500
			CHANNELS 3 Xrotation Yrotation Zrotation
			JOINT LeftLeg
			{
				OFFSET 0.000000 -0.000003 19.840004
				CHANNELS 3 Xrotation Yrotation Zrotation
				JOINT LeftLegRoll
				{
					OFFSET 0.000000 -0.000004 20.089005
					CHANNELS 3 Xrotation Yrotation Zrotation
					JOINT LeftFoot
					{
						OFFSET 0.000000 -0.000003 16.383499
						CHANNELS 3 Xrotation Yrotation Zrotation
						JOINT LeftToeBase
						{
							OFFSET 0.000000 -0.000002 13.849594
							CHANNELS 3 Xrotation Yrotation Zrotation
							End Site
							{
								OFFSET -0.026310 0.773116 6.707275
							}
						}
					}
				}
			}
		}
	}
}
MOTION
Frames: 8
Frame Time: 0.041667
51.307808 -6.472264 84.356300 -9.647921 -0.558288 0.183761 -0.205719 -0.284094 0.082508 3.610668 -0.566366 0.156803 5.255775 -0.564473 0.164087 14.318425 8.026786 0.425889 -0.012693 -11.656898 0.549835 6.579931 -69.910763 6.048114 -42.088527 -116.937879 -50.092857 -0.000000 -0.000000 -0.000000 -0.026514 3.640709 -1.990737 -0.000005 0.000001 -3.011609 -5.000151 -7.999928 0.000010 -5.006295 66.243047 6.489930 -37.306992 119.886103 47.357964 0.000000 -0.000000 0.000000 -0.026846 -3.640210 1.990795 -0.000004 -0.000003 3.011608 -5.000165 7.999935 0.000001 4.843524 -178.442572 4.428386 -179.999991 0.000005 -1.217995 171.713592 -2.997441 -0.503345 0.000002 0.000004 0.100101 68.876850 6.889601 2.153669 25.456894 -7.361241 -0.000000 3.206983 178.684060 -0.897445 -0.000005 -0.000004 -1.178080 -11.116311 2.464339 0.537643 0.000001 -0.000001 -0.189172 70.915935 -6.833120 -2.157152 25.456955 7.355614 -0.000000 
51.310604 -6.478183 84.357193 -9.639593 -0.554082 0.196790 -0.206926 -0.284090 0.082508 3.606897 -0.566251 0.156803 5.252004 -0.564360 0.164087 14.287032 7.996736 0.435289 -0.028710 -11.657995 0.558735 6.586432 -69.922074 6.053603 -42.094162 -116.920353 -50.085422 0.000001 -0.000000 0.000000 -0.026511 3.640710 -1.990736 -0.000007 0.000001 -3.011613 -5.000151 -7.999927 0.000011 -5.007437 66.239905 6.490955 -37.305783 119.890270 47.359903 -0.000001 0.000001 -0.000001 -0.026847 -3.640209 1.990795 -0.000004 -0.000004 3.011608 -5.000162 7.999936 -0.000000 4.837645 -178.450549 4.423571 -179.999991 0.000005 -1.217995 171.712363 -2.998418 -0.502556 0.000002 0.000004 0.099893 68.877991 6.889563 2.153692 25.456895 -7.361242 -0.000001 3.195158 178.684046 -0.888221 -0.000005 -0.000004 -1.178100 -11.124015 2.452126 0.536669 0.000001 -0.000002 -0.189541 70.926057 -6.833104 -2.157029 25.456952 7.355613 0.000001 
51.306404 -6.477802 84.357101 -9.631437 -0.549814 0.210064 -0.208102 -0.284083 0.082508 3.603136 -0.566139 0.156803 5.248234 -0.564249 0.164088 14.255726 7.965957 0.444626 -0.044395 -11.658495 0.567661 6.593307 -69.934082 6.059398 -42.099630 -116.902772 -50.077058 0.000001 0.000000 0.000001 -0.026508 3.640709 -1.990736 -0.000006 0.000001 -3.011610 -5.000152 -7.999927 0.000008 -5.008579 66.236258 6.491933 -37.305704 119.895966 47.364121 -0.000002 -0.000000 0.000001 -0.026849 -3.640210 1.990796 -0.000005 -0.000004 3.011608 -5.000160 7.999935 0.000001 4.831853 -178.458486 4.418732 -179.999991 0.000005 -1.217995 171.710997 -2.999394 -0.502771 0.000002 0.000004 0.099671 68.879166 6.889598 2.153724 25.456895 -7.361242 -0.000000 3.183537 178.684032 -0.878637 -0.000004 -0.000004 -1.178120 -11.131715 2.439462 0.535649 0.000001 -0.000001 -0.189911 70.936507 -6.833113 -2.156789 25.456957 7.355614 -0.000000 
51.306004 -6.481416 84.356201 -9.623419 -0.545502 0.223510 -0.209257 -0.284075 0.082508 3.599377 -0.566029 0.156803 5.244484 -0.564140 0.164087 14.224508 7.934639 0.453919 -0.059853 -11.658389 0.576605 6.600431 -69.946485 6.065396 -42.106279 -116.884385 -50.069545 -0.000002 -0.000000 -0.000001 -0.026513 3.640709 -1.990736 -0.000004 0.000001 -3.011609 -5.000153 -7.999928 0.000008 -5.009716 66.232215 6.492873 -37.306077 119.902933 47.369428 -0.000000 0.000000 -0.000000 -0.026846 -3.640210 1.990796 -0.000004 -0.000003 3.011608 -5.000162 7.999937 -0.000002 4.826112 -178.466450 4.413873 -179.999991 0.000005 -1.217995 171.709494 -3.000370 -0.501996 0.000001 0.000004 0.099439 68.880634 6.889579 2.153730 25.456897 -7.361242 -0.000000 3.172032 178.685002 -0.868745 -0.000005 -0.000004 -1.178140 -11.139315 2.426486 0.534591 0.000001 -0.000001 -0.190282 70.947142 -6.833093 -2.156732 25.456952 7.355613 0.000001 
51.304203 -6.486635 84.356293 -9.615471 -0.541162 0.237053 -0.210398 -0.284067 0.082508 3.595628 -0.565920 0.156803 5.240734 -0.564033 0.164087 14.193287 7.903036 0.463155 -0.075170 -11.658087 0.585562 6.607744 -69.959271 6.071564 -42.112590 -116.865875 -50.061523 -0.000003 0.000000 0.000001 -0.026515 3.640710 -1.990737 -0.000007 0.000001 -3.011610 -5.000153 -7.999927 0.000013 -5.010831 66.228062 6.493790 -37.307115 119.910145 47.375917 -0.000001 0.000000 0.000000 -0.026847 -3.640209 1.990795 -0.000006 -0.000004 3.011608 -5.000161 7.999938 -0.000000 4.820418 -178.474428 4.408999 -179.999991 0.000005 -1.217995 171.707950 -3.001346 -0.502220 0.000001 0.000004 0.099203 68.882007 6.889590 2.153747 25.456892 -7.361242 -0.000001 3.160613 178.684989 -0.858765 -0.000005 -0.000004 -1.178170 -11.146914 2.413313 0.533510 0.000001 -0.000001 -0.190654 70.957906 -6.833096 -2.156572 25.456955 7.355614 0.000000 
51.303707 -6.486193 84.353989 -9.607534 -0.536813 0.250620 -0.211541 -0.284058 0.082508 3.591876 -0.565811 0.156804 5.236984 -0.563926 0.164087 14.162178 7.871344 0.472352 -0.090459 -11.657683 0.594520 6.615071 -69.972064 6.077734 -42.119065 -116.847420 -50.053556 -0.000002 0.000000 -0.000000 -0.026513 3.640709 -1.990736 -0.000006 0.000001 -3.011609 -5.000153 -7.999928 0.000010 -5.011953 66.223827 6.494689 -37.307613 119.918287 47.381733 -0.000002 0.000000 0.000001 -0.026845 -3.640210 1.990795 -0.000005 -0.000003 3.011608 -5.000163 7.999936 0.000001 4.814714 -178.482364 4.404136 -179.999991 0.000005 -1.217995 171.706352 -3.002334 -0.501439 0.000002 0.000004 0.098965 68.883489 6.889607 2.153656 25.456895 -7.361244 0.000000 3.149208 178.684989 -0.848748 -0.000004 -0.000004 -1.178200 -11.154510 2.400113 0.532424 0.000001 -0.000002 -0.191027 70.968678 -6.833132 -2.156419 25.456955 7.355613 -0.000000 
51.305103 -6.486754 84.352600 -9.599565 -0.532472 0.264136 -0.212686 -0.284050 0.082508 3.588125 -0.565703 0.156804 5.233223 -0.563818 0.164087 14.130978 7.839788 0.481521 -0.105812 -11.657378 0.603474 6.622344 -69.984762 6.083869 -42.125407 -116.828910 -50.045554 0.000001 -0.000000 0.000000 -0.026513 3.640709 -1.990737 -0.000006 0.000001 -3.011611 -5.000151 -7.999927 0.000010 -5.013066 66.219668 6.495605 -37.308494 119.925431 47.387986 -0.000000 -0.000000 0.000000 -0.026846 -3.640210 1.990795 -0.000005 -0.000004 3.011609 -5.000160 7.999936 -0.000001 4.809006 -178.490342 4.399274 -179.999991 0.000005 -1.217995 171.704822 -3.003308 -0.500665 0.000002 0.000004 0.098729 68.884869 6.889618 2.153774 25.456901 -7.361243 -0.000000 3.137766 178.684975 -0.838805 -0.000005 -0.000004 -1.178230 -11.162109 2.386990 0.531340 0.000001 -0.000002 -0.191399 70.979435 -6.833131 -2.156258 25.456953 7.355613 0.000000 
51.303104 -6.490964 84.351601 -9.591500 -0.528156 0.277528 -0.213848 -0.284042 0.082508 3.584366 -0.565592 0.156803 5.229473 -0.563709 0.164088 14.099802 7.808592 0.490672 -0.121331 -11.657472 0.612413 6.629443 -69.997063 6.089856 -42.132090 -116.810524 -50.038277 -0.000002 -0.000000 -0.000001 -0.026513 3.640709 -1.990737 -0.000005 0.000001 -3.011611 -5.000151 -7.999927 0.000010 -5.014216 66.215822 6.496572 -37.308365 119.932248 47.392552 -0.000001 0.000000 0.000000 -0.026848 -3.640210 1.990795 -0.000003 -0.000004 3.011611 -5.000160 7.999936 -0.000000 4.803258 -178.498292 4.394423 -179.999991 0.000005 -1.217995 171.703347 -3.004284 -0.500887 0.000002 0.000004 0.098501 68.886242 6.889628 2.153690 25.456894 -7.361243 0.000000 3.126234 178.684961 -0.829041 -0.000005 -0.000004 -1.178260 -11.169811 2.374104 0.530282 0.000001 -0.000001 -0.191770 70.989981 -6.833126 -2.156110 25.456952 7.355614 -0.000000 
